<svg xmlns="http://www.w3.org/2000/svg" xmlns:xlink="http://www.w3.org/1999/xlink" viewBox="0 0 1110.6 625.54"><defs><style>.cls-1,.cls-17,.cls-18,.cls-19,.cls-20,.cls-21,.cls-22,.cls-23,.cls-24,.cls-25,.cls-26,.cls-27,.cls-28,.cls-29,.cls-30,.cls-31,.cls-32,.cls-33,.cls-34,.cls-35{fill:none;}.cls-2{clip-path:url(#clip-path);}.cls-3{fill:#fdbb16;}.cls-4{fill:#eeeaeb;}.cls-5{fill:#8bb32f;}.cls-6{fill:#688623;}.cls-7{fill:#fbb040;}.cls-8{fill:#f28a13;}.cls-9{fill:#e3e3e3;}.cls-10{fill:#f6f6f6;}.cls-11{fill:#ec008c;}.cls-12{fill:#a01065;}.cls-13{fill:#44aaae;}.cls-14{fill:#0d9ba3;}.cls-15{fill:#fff;}.cls-16{fill:#27aae1;}.cls-17,.cls-18,.cls-19,.cls-20,.cls-21,.cls-22,.cls-23,.cls-24,.cls-25,.cls-26,.cls-27,.cls-28,.cls-29,.cls-30,.cls-31,.cls-32,.cls-33,.cls-34,.cls-35{stroke:#000;stroke-miterlimit:10;stroke-width:2.78px;}.cls-17{stroke-dasharray:8.37 8.37;}.cls-19{stroke-dasharray:8.41 8.41;}.cls-20{stroke-dasharray:8.44 8.44;}.cls-21{stroke-dasharray:8.24 8.24;}.cls-22{stroke-dasharray:8.38 8.38;}.cls-23{stroke-dasharray:8.2 8.2;}.cls-24{stroke-dasharray:8.44 8.44;}.cls-25{stroke-dasharray:8.33 8.33;}.cls-26{stroke-dasharray:8.19 8.19;}.cls-27{stroke-dasharray:8.34 8.34;}.cls-28{stroke-dasharray:8.24 8.24;}.cls-29{stroke-dasharray:8.09 8.09;}.cls-30{stroke-dasharray:8.84 8.84;}.cls-31{stroke-dasharray:9.05 9.05;}.cls-32{stroke-dasharray:8.41 8.41;}.cls-33{stroke-dasharray:8.4 8.4;}.cls-34{stroke-dasharray:8.14 8.14;}.cls-35{stroke-dasharray:8.72 8.72;}.cls-36{fill:#fe7311;}.cls-37{fill:#ff8c13;}.cls-38{fill:#1c75bc;}</style><clipPath id="clip-path" transform="translate(235.99 3.15)"><path class="cls-1" d="M311.15,311.44,581.5,157C527.91,63.23,426.92,0,311.15,0,139.31,0,0,139.31,0,311.15S139.31,622.3,311.15,622.3c114.55,0,214.63-61.91,268.64-154.09Z"/></clipPath></defs><title>logo svg</title><g id="Layer_2" data-name="Layer 2"><g id="Layer_1-2" data-name="Layer 1"><g class="cls-2"><rect class="cls-3" x="0.1" width="1110.5" height="625.39"/><rect class="cls-4" x="536.02" y="152.53" width="19.33" height="472.52"/><rect class="cls-4" x="550.73" y="547.82" width="444.91" height="19.34"/><rect class="cls-4" x="0.1" y="302.25" width="1110.5" height="19.33"/><rect class="cls-4" x="98.44" y="0.07" width="28.48" height="429.94"/><rect class="cls-4" x="28.96" y="104.09" width="286.94" height="17.61"/><path class="cls-5" d="M-217.14,513.64a25.11,25.11,0,0,0,25.31,24.9V488.73A25.11,25.11,0,0,0-217.14,513.64Z" transform="translate(235.99 3.15)"/><path class="cls-6" d="M-191.83,488.73v49.81a25.11,25.11,0,0,0,25.3-24.9A25.11,25.11,0,0,0-191.83,488.73Z" transform="translate(235.99 3.15)"/><rect class="cls-5" x="42.33" y="505.98" width="1.82" height="64.58"/><polygon class="cls-6" points="45.97 505.98 44.55 505.98 44.15 505.98 44.15 570.55 45.97 570.55 45.97 505.98"/><path class="cls-5" d="M-145.72,513.64a25.11,25.11,0,0,0,25.31,24.9V488.73A25.11,25.11,0,0,0-145.72,513.64Z" transform="translate(235.99 3.15)"/><path class="cls-6" d="M-120.41,488.73v49.81a25.11,25.11,0,0,0,25.3-24.9A25.11,25.11,0,0,0-120.41,488.73Z" transform="translate(235.99 3.15)"/><rect class="cls-5" x="113.75" y="505.98" width="1.82" height="64.58"/><polygon class="cls-6" points="117.39 505.98 115.97 505.98 115.57 505.98 115.57 570.55 117.39 570.55 117.39 505.98"/><path class="cls-5" d="M-70,513.64a25.11,25.11,0,0,0,25.31,24.9V488.73A25.12,25.12,0,0,0-70,513.64Z" transform="translate(235.99 3.15)"/><path class="cls-6" d="M-44.73,488.73v49.81a25.11,25.11,0,0,0,25.3-24.9A25.11,25.11,0,0,0-44.73,488.73Z" transform="translate(235.99 3.15)"/><rect class="cls-5" x="189.43" y="505.98" width="1.82" height="64.58"/><polygon class="cls-6" points="193.07 505.98 191.65 505.98 191.26 505.98 191.26 570.55 193.07 570.55 193.07 505.98"/><path class="cls-5" d="M24.61,228.56a25.12,25.12,0,0,0,25.31,24.91V203.65A25.12,25.12,0,0,0,24.61,228.56Z" transform="translate(235.99 3.15)"/><path class="cls-6" d="M49.92,203.65v49.82a24.91,24.91,0,1,0,0-49.82Z" transform="translate(235.99 3.15)"/><rect class="cls-5" x="284.08" y="220.9" width="1.82" height="64.58"/><polygon class="cls-6" points="287.72 220.9 286.3 220.9 285.91 220.9 285.91 285.48 287.72 285.48 287.72 220.9"/><path class="cls-4" d="M-70.07,404.5l-165.81-.09v24.83l165.81.23c47.16,0,90.29,26.49,90.25,60.23V621.89H50.27V490.67C50.37,443.21-3.62,404.55-70.07,404.5Z" transform="translate(235.99 3.15)"/><path class="cls-4" d="M196.6,395.3a33.17,33.17,0,0,0-33.13,33.14V536.49a17.86,17.86,0,0,1-17.84,17.84H34.34v15.29h111.3a33.17,33.17,0,0,0,33.13-33.14v-108A17.86,17.86,0,0,1,196.6,410.6H428.28V395.3Z" transform="translate(235.99 3.15)"/><rect class="cls-4" x="143.18" y="335.4" width="77.49" height="47.8"/><rect class="cls-4" x="151.6" y="143.5" width="77.49" height="47.8"/><rect class="cls-4" x="254.13" y="143.5" width="44.42" height="47.8"/><rect class="cls-4" x="154.32" y="234.67" width="44.42" height="47.8"/><rect class="cls-4" x="237.55" y="335.4" width="78.36" height="22.81"/><rect class="cls-4" x="336.03" y="335.4" width="38.17" height="63.06"/><path class="cls-7" d="M737.33,383.15a3.36,3.36,0,0,1-3.37-3.37V357.67a3.37,3.37,0,0,1,3.37-3.37h11.78v-5.66H732.7a4.69,4.69,0,0,0-4.69,4.69v30.8a4.69,4.69,0,0,0,4.69,4.69h9.58L745,398l4.07,13.47V383.15Z" transform="translate(235.99 3.15)"/><path class="cls-8" d="M765.51,348.64h-16.4v5.66h11.77a3.37,3.37,0,0,1,3.38,3.37v22.11a3.37,3.37,0,0,1-3.38,3.37H749.11v28.29L753.17,398l2.76-9.15h9.58a4.69,4.69,0,0,0,4.69-4.69v-30.8A4.69,4.69,0,0,0,765.51,348.64Z" transform="translate(235.99 3.15)"/><path class="cls-9" d="M760.88,383.15a3.37,3.37,0,0,0,3.38-3.37V357.67a3.37,3.37,0,0,0-3.38-3.37H749.11v28.85Z" transform="translate(235.99 3.15)"/><path class="cls-10" d="M734,357.67v22.11a3.36,3.36,0,0,0,3.37,3.37h11.78V354.3H737.33A3.37,3.37,0,0,0,734,357.67Z" transform="translate(235.99 3.15)"/><path class="cls-7" d="M-89,52A14.76,14.76,0,0,1-74.23,37.18V30.85A21.1,21.1,0,0,0-95.32,52,21.1,21.1,0,0,0-79.63,72.34l0,.11,5.37,21.24v-27A14.76,14.76,0,0,1-89,52Z" transform="translate(235.99 3.15)"/><path class="cls-8" d="M-74.23,30.85v6.33A14.77,14.77,0,0,1-59.46,52,14.76,14.76,0,0,1-74.23,66.71v27l5.37-21.24,0-.11A21.1,21.1,0,0,0-53.13,52,21.1,21.1,0,0,0-74.23,30.85Z" transform="translate(235.99 3.15)"/><path class="cls-10" d="M-89,52A14.76,14.76,0,0,0-74.23,66.71V37.18A14.76,14.76,0,0,0-89,52Z" transform="translate(235.99 3.15)"/><path class="cls-9" d="M-59.46,52A14.77,14.77,0,0,0-74.23,37.18V66.71A14.76,14.76,0,0,0-59.46,52Z" transform="translate(235.99 3.15)"/><path class="cls-4" d="M469.06,377.4a17.86,17.86,0,0,1-17.84,17.84H339.92v15.29h111.3a33.17,33.17,0,0,0,33.13-33.14V308.76H469.06Z" transform="translate(235.99 3.15)"/><path class="cls-11" d="M-193.85,193.4a14.67,14.67,0,0,1,14.67-14.67v-6.28a21,21,0,0,0-21,21,21,21,0,0,0,15.59,20.26l0,.11,5.34,21.09V208.07A14.67,14.67,0,0,1-193.85,193.4Z" transform="translate(235.99 3.15)"/><path class="cls-12" d="M-179.18,172.45v6.28a14.67,14.67,0,0,1,14.66,14.67,14.67,14.67,0,0,1-14.66,14.67v26.79l5.33-21.09,0-.11a21,21,0,0,0,15.59-20.26A21,21,0,0,0-179.18,172.45Z" transform="translate(235.99 3.15)"/><path class="cls-12" d="M-187.51,193.41a8.33,8.33,0,0,1,8.33-8.33v-6.35a14.67,14.67,0,0,0-14.67,14.67,14.67,14.67,0,0,0,14.67,14.67v-6.34A8.33,8.33,0,0,1-187.51,193.41Z" transform="translate(235.99 3.15)"/><path class="cls-11" d="M-179.18,178.73v6.35a8.33,8.33,0,0,1,8.32,8.33,8.33,8.33,0,0,1-8.32,8.32v6.34a14.67,14.67,0,0,0,14.66-14.67A14.67,14.67,0,0,0-179.18,178.73Z" transform="translate(235.99 3.15)"/><path class="cls-13" d="M406.38,344.12a14.67,14.67,0,0,1,14.67-14.67v-6.28a21,21,0,0,0-5.37,41.21l0,.11,5.34,21.09V358.79A14.67,14.67,0,0,1,406.38,344.12Z" transform="translate(235.99 3.15)"/><path class="cls-14" d="M421.05,323.17v6.28a14.67,14.67,0,0,1,0,29.34v26.79l5.33-21.09,0-.11a21,21,0,0,0-5.36-41.21Z" transform="translate(235.99 3.15)"/><path class="cls-14" d="M412.72,344.13a8.32,8.32,0,0,1,8.33-8.33v-6.35a14.67,14.67,0,0,0,0,29.34v-6.34A8.32,8.32,0,0,1,412.72,344.13Z" transform="translate(235.99 3.15)"/><path class="cls-13" d="M421.05,329.45v6.35a8.33,8.33,0,0,1,0,16.65v6.34a14.67,14.67,0,0,0,0-29.34Z" transform="translate(235.99 3.15)"/><path class="cls-5" d="M99.38,454.53a14.67,14.67,0,0,1,14.67-14.67v-6.29a21,21,0,0,0-5.37,41.22l0,.11L114.05,496V469.2A14.67,14.67,0,0,1,99.38,454.53Z" transform="translate(235.99 3.15)"/><path class="cls-6" d="M114.05,433.57v6.29a14.67,14.67,0,0,1,0,29.34V496l5.34-21.09,0-.11a21,21,0,0,0-5.37-41.22Z" transform="translate(235.99 3.15)"/><path class="cls-6" d="M105.72,454.53a8.33,8.33,0,0,1,8.33-8.32v-6.35a14.67,14.67,0,0,0,0,29.34v-6.34A8.33,8.33,0,0,1,105.72,454.53Z" transform="translate(235.99 3.15)"/><path class="cls-5" d="M114.05,439.86v6.35a8.33,8.33,0,0,1,0,16.65v6.34a14.67,14.67,0,0,0,0-29.34Z" transform="translate(235.99 3.15)"/><path class="cls-7" d="M828.15,139.13a14.67,14.67,0,0,1,14.67-14.67v-6.29a21,21,0,0,0-5.37,41.21l0,.12,5.34,21.09v-26.8A14.66,14.66,0,0,1,828.15,139.13Z" transform="translate(235.99 3.15)"/><path class="cls-8" d="M842.82,118.17v6.29a14.67,14.67,0,1,1,0,29.33v26.8l5.34-21.09,0-.12a21,21,0,0,0-5.37-41.21Z" transform="translate(235.99 3.15)"/><path class="cls-8" d="M834.5,139.13a8.32,8.32,0,0,1,8.32-8.32v-6.35a14.67,14.67,0,1,0,0,29.33v-6.33A8.32,8.32,0,0,1,834.5,139.13Z" transform="translate(235.99 3.15)"/><path class="cls-7" d="M842.82,124.46v6.35a8.33,8.33,0,1,1,0,16.65v6.33a14.67,14.67,0,1,0,0-29.33Z" transform="translate(235.99 3.15)"/><path class="cls-4" d="M765.86,467a33.17,33.17,0,0,0-33.14-33.13H624.67a17.87,17.87,0,0,1-17.84-17.84V304.76H591.54v111.3a33.16,33.16,0,0,0,33.13,33.13H732.72A17.87,17.87,0,0,1,750.57,467V621.91h15.29Z" transform="translate(235.99 3.15)"/><rect class="cls-4" x="874.62" y="339.27" width="74.86" height="42.87"/><rect class="cls-4" x="782.83" y="261.67" width="48.03" height="26.65"/><rect class="cls-4" x="873.06" y="261.67" width="85.38" height="26.65"/><rect class="cls-4" x="1008.22" y="261.67" width="48.03" height="26.65"/><rect class="cls-4" x="1028.7" y="533.6" width="58.3" height="67.11"/><rect class="cls-4" x="1028.7" y="339.27" width="58.3" height="150.36"/><rect class="cls-10" x="1000.24" y="505.94" width="110.36" height="15.29"/><path class="cls-15" d="M309.14,271.83c-26.59,0-48.08,17.1-48.08,38.19s21.49,38.16,48.08,38.16,48.05-17.06,48.05-38.16S335.65,271.83,309.14,271.83Zm0,64.9c-18.62,0-33.66-11.94-33.66-26.72s15-26.72,33.66-26.72,33.63,12,33.63,26.72S327.7,336.73,309.14,336.73Z" transform="translate(235.99 3.15)"/><path class="cls-4" d="M309.14,283.29c-18.62,0-33.66,12-33.66,26.72s15,26.72,33.66,26.72,33.63-11.94,33.63-26.72S327.7,283.29,309.14,283.29Zm0,41.15C299.08,324.44,291,318,291,310s8.12-14.43,18.17-14.43S327.3,302,327.3,310,319.15,324.44,309.13,324.44Z" transform="translate(235.99 3.15)"/><path class="cls-15" d="M328.15,310c0,8.4-8.51,15.22-19,15.22s-19-6.82-19-15.22,8.52-15.23,19-15.23S328.15,301.6,328.15,310Z" transform="translate(235.99 3.15)"/><polygon class="cls-6" points="957.58 510.76 963.91 510.76 952.21 490.49 958.84 490.49 945.59 467.54 945.59 531.53 969.57 531.53 957.58 510.76"/><polygon class="cls-5" points="932.33 490.49 938.96 490.49 927.25 510.76 933.59 510.76 921.6 531.53 945.59 531.53 945.59 467.54 932.33 490.49"/><polygon class="cls-6" points="877.01 205.77 884.8 205.77 870.4 180.81 878.56 180.81 862.24 152.53 862.24 231.35 891.78 231.35 877.01 205.77"/><polygon class="cls-5" points="845.91 180.81 854.07 180.81 839.66 205.77 847.46 205.77 832.69 231.35 862.24 231.35 862.24 152.53 845.91 180.81"/><polygon class="cls-6" points="958.44 205.77 966.23 205.77 951.83 180.81 959.99 180.81 943.66 152.53 943.66 231.35 973.21 231.35 958.44 205.77"/><polygon class="cls-5" points="927.34 180.81 935.5 180.81 921.09 205.77 928.89 205.77 914.12 231.35 943.66 231.35 943.66 152.53 927.34 180.81"/><polygon class="cls-6" points="1037.76 205.77 1045.56 205.77 1031.15 180.81 1039.31 180.81 1022.99 152.53 1022.99 231.35 1052.53 231.35 1037.76 205.77"/><polygon class="cls-5" points="1006.66 180.81 1014.82 180.81 1000.41 205.77 1008.21 205.77 993.44 231.35 1022.99 231.35 1022.99 152.53 1006.66 180.81"/><path class="cls-4" d="M461.42,307.33H450.31c0-1.78.25-43.84,22.23-63.31,18.42-16.33,25.58-39.34,26.14-55.42,1.4-39.85,4.36-95.18,4.39-95.73l11.09.59c0,.55-3,55.78-4.38,95.52-.31,8.93-3.39,39.87-29.87,63.35C461.63,268.53,461.42,306.94,461.42,307.33Z" transform="translate(235.99 3.15)"/><path class="cls-6" d="M612,40.52A20.54,20.54,0,0,0,591.44,20v9.48a11.06,11.06,0,0,1,0,22.12V80s9.69-15.5,13.35-20.72C612.91,47.65,612,40.52,612,40.52Z" transform="translate(235.99 3.15)"/><path class="cls-5" d="M591.44,29.46V20a20.55,20.55,0,0,0-20.55,20.54s-.93,7.13,7.2,18.72C581.74,64.46,591.44,80,591.44,80V51.58a11.06,11.06,0,0,1,0-22.12Z" transform="translate(235.99 3.15)"/><path class="cls-10" d="M576.47,40.88a15,15,0,0,0,15,15V25.91A15,15,0,0,0,576.47,40.88Z" transform="translate(235.99 3.15)"/><path class="cls-9" d="M591.44,25.91v30a15,15,0,0,0,0-29.95Z" transform="translate(235.99 3.15)"/><polygon class="cls-16" points="715.57 73.15 719.53 73.15 726.94 51.4 722.4 39.68 708.07 52.17 699.95 73.15 706 73.15 715.57 73.15"/><polygon class="cls-15" points="722.4 39.68 717.65 27.42 710.36 46.27 708.07 52.17 722.4 39.68"/><polygon class="cls-16" points="744.65 73.15 755.66 48.27 747.14 23.26 731.38 38.34 726.94 51.4 719.53 73.15 744.65 73.15"/><polygon class="cls-15" points="741.83 7.66 731.38 38.34 731.38 38.34 747.14 23.26 741.83 7.66"/><polygon class="cls-16" points="789.25 73.15 772.55 35.42 756.37 46.66 755.66 48.27 744.65 73.15 789.25 73.15"/><polygon class="cls-15" points="772.55 35.42 766.95 22.76 758.4 42.08 756.37 46.66 772.55 35.42"/><polygon class="cls-16" points="888.6 73.15 892.56 73.15 899.97 51.4 895.43 39.68 881.1 52.17 872.98 73.15 879.02 73.15 888.6 73.15"/><polygon class="cls-15" points="895.43 39.68 890.68 27.42 883.39 46.27 881.1 52.17 895.43 39.68"/><polygon class="cls-16" points="917.68 73.15 928.69 48.27 920.17 23.26 904.41 38.34 899.97 51.4 892.56 73.15 917.68 73.15"/><polygon class="cls-15" points="914.86 7.66 904.41 38.34 904.41 38.34 920.17 23.26 914.86 7.66"/><polygon class="cls-16" points="962.28 73.15 945.58 35.42 929.4 46.66 928.69 48.27 917.68 73.15 962.28 73.15"/><polygon class="cls-15" points="945.58 35.42 939.98 22.76 931.43 42.08 929.4 46.66 945.58 35.42"/><path class="cls-4" d="M510.22,166.59l-10.16-4.46c1.12-2.73,13.5-26.79,101.31-32.4,16-1,32.46-1.84,48.33-2.63,65.68-3.28,133.61-6.66,147.67-24.93,16.81-21.82,13.85-34.71,13.82-34.84l10.68-3c.53,1.8,4.61,18.29-15.69,44.66-17.2,22.33-81.49,25.53-155.93,29.25-15.83.79-32.2,1.6-48.17,2.62C521.91,145.93,510.33,166.38,510.22,166.59Z" transform="translate(235.99 3.15)"/><path class="cls-4" d="M128.79,305.56c-.54-3.72-13-91.63,10.19-124.88a184.85,184.85,0,0,1,18-22c9.09-9.78,12.86-13.83,15.79-38.37,1.74-14.47,0-66.3,0-66.82l11.1-.38c.07,2.16,1.79,53.21,0,68.52-3.23,27-8.06,33.19-18.68,44.61a174.4,174.4,0,0,0-17,20.83c-20.7,29.66-8.44,116.06-8.31,116.93Z" transform="translate(235.99 3.15)"/><path class="cls-14" d="M627.43,106c-9.3,0-18.73-.07-28.19-.18-6.1-.07-11.29-.13-15.29-.13-30.08,0-136.74-2.56-246.42-35.41C268,49.41,200.34,54,146,57.61c-41.28,2.77-73.89,5-97.44-3.77-37-13.72-38.41-55.08-38.46-57l16.8.07c.43,4.39,1.06,31.52,27.45,41.3,20.21,7.5,52.8,5.31,90.54,2.77,55.67-3.74,125-8.4,197.42,13.3C449.82,86.5,554.45,89,584,89c4,0,9.31.06,15.49.13,40.71.49,148.84,1.77,168.69-18.38,22.75-23.1,98-24,106.45-24.09V63.3c-29.43.12-81.1,5.44-94.58,19.14C760.73,102,697.68,106,627.43,106Z" transform="translate(235.99 3.15)"/><rect class="cls-10" x="773.18" y="451.91" width="7.53" height="105.58"/><rect class="cls-10" x="705.27" y="477.69" width="210.48" height="9.38"/><rect class="cls-4" x="628.45" y="426.92" width="46.38" height="33.55"/><rect class="cls-4" x="750" y="335.02" width="46.38" height="33.55"/><rect class="cls-4" x="582.07" y="499.54" width="92.75" height="33.55"/><rect class="cls-4" x="429.38" y="435.13" width="92.75" height="33.55"/><rect class="cls-4" x="313.6" y="514.76" width="54.98" height="33.55"/><ellipse class="cls-17" cx="545.76" cy="313.33" rx="40.94" ry="33.48"/><line class="cls-18" x1="0.1" y1="311.92" x2="4.27" y2="311.92"/><line class="cls-19" x1="12.68" y1="311.92" x2="496.52" y2="311.92"/><line class="cls-18" x1="500.72" y1="311.92" x2="504.89" y2="311.92"/><line class="cls-18" x1="587.18" y1="311.92" x2="591.34" y2="311.92"/><line class="cls-20" x1="599.79" y1="311.92" x2="1102.21" y2="311.92"/><line class="cls-18" x1="1106.44" y1="311.92" x2="1110.6" y2="311.92"/><path class="cls-18" d="M816.55,68.63a25.9,25.9,0,0,1,.39,4.14" transform="translate(235.99 3.15)"/><path class="cls-21" d="M816.28,81c-3,16.25-18,43.16-84.45,46.43-90.12,4.44-178.57,7.21-218.73,27.51" transform="translate(235.99 3.15)"/><path class="cls-18" d="M509.48,156.85c-1.23.71-2.41,1.45-3.53,2.2" transform="translate(235.99 3.15)"/><line class="cls-18" x1="744.65" y1="105.2" x2="744.43" y2="109.36"/><path class="cls-22" d="M508,114.58l-4.34,80.32s-4.94,36.45-31.56,57.24c0,0-12.81,21.74-16,46.86" transform="translate(235.99 3.15)"/><path class="cls-18" d="M455.63,303.17c-.11,1.38-.2,2.77-.24,4.16" transform="translate(235.99 3.15)"/><line class="cls-18" x1="112.68" y1="0.07" x2="112.68" y2="4.23"/><line class="cls-23" x1="112.68" y1="12.44" x2="112.68" y2="303.65"/><line class="cls-18" x1="112.68" y1="307.75" x2="112.68" y2="311.92"/><line class="cls-18" x1="28.96" y1="112.89" x2="33.13" y2="112.89"/><line class="cls-24" x1="41.57" y1="112.89" x2="307.52" y2="112.89"/><line class="cls-18" x1="311.74" y1="112.89" x2="315.9" y2="112.89"/><path class="cls-18" d="M178.43,55.61s.16,1.49.37,4.14" transform="translate(235.99 3.15)"/><path class="cls-25" d="M179.37,68.06c1.48,26.56,1.82,87.45-24.56,101.38-28.59,15.11-24.1,103.35-22,131" transform="translate(235.99 3.15)"/><path class="cls-18" d="M133.19,304.62c.23,2.66.39,4.14.39,4.14" transform="translate(235.99 3.15)"/><line class="cls-18" x1="545.76" y1="625.39" x2="545.76" y2="621.23"/><line class="cls-26" x1="545.76" y1="613.04" x2="545.76" y2="355.06"/><line class="cls-18" x1="545.76" y1="350.97" x2="545.76" y2="346.8"/><line class="cls-18" x1="545.76" y1="557.49" x2="549.93" y2="557.49"/><line class="cls-27" x1="558.27" y1="557.49" x2="988.02" y2="557.49"/><line class="cls-18" x1="992.19" y1="557.49" x2="996.36" y2="557.49"/><line class="cls-18" x1="995.17" y1="513.59" x2="999.34" y2="513.59"/><line class="cls-28" x1="1007.57" y1="513.59" x2="1102.28" y2="513.59"/><line class="cls-18" x1="1106.4" y1="513.59" x2="1110.57" y2="513.59"/><line class="cls-18" x1="705.27" y1="482.38" x2="709.43" y2="482.38"/><line class="cls-29" x1="717.52" y1="482.38" x2="907.54" y2="482.38"/><line class="cls-18" x1="911.58" y1="482.38" x2="915.75" y2="482.38"/><line class="cls-18" x1="776.95" y1="451.91" x2="776.95" y2="456.07"/><line class="cls-30" x1="776.95" y1="464.91" x2="776.95" y2="548.9"/><line class="cls-18" x1="776.95" y1="553.32" x2="776.95" y2="557.49"/><line class="cls-18" x1="112.68" y1="311.92" x2="112.68" y2="316.08"/><line class="cls-31" x1="112.68" y1="325.13" x2="112.68" y2="411.06"/><line class="cls-18" x1="112.68" y1="415.58" x2="112.68" y2="419.74"/><path class="cls-18" d="M-235.88,416.59s1.44-.11,4.15-.27" transform="translate(235.99 3.15)"/><path class="cls-32" d="M-223.33,415.88c35.6-1.64,140.18-3.84,224.89,20.56,0,0,50.75,6.35,33.65,177.47" transform="translate(235.99 3.15)"/><path class="cls-18" d="M34.78,618.1c-.14,1.37-.29,2.75-.44,4.14" transform="translate(235.99 3.15)"/><path class="cls-18" d="M476.89,308.76s.17,1.51.4,4.15" transform="translate(235.99 3.15)"/><path class="cls-33" d="M477.9,321.28c1.58,26.3,2,84.62-25.47,80.93l-142.65.2S198,399.93,176.7,412.34c0,0-11.34,2.07-6,116,0,0,4.81,43.8-46.15,33.87H47.09" transform="translate(235.99 3.15)"/><line class="cls-18" x1="278.88" y1="565.41" x2="274.72" y2="565.41"/><path class="cls-18" d="M600,308.76s-.1,1.49-.26,4.16" transform="translate(235.99 3.15)"/><path class="cls-34" d="M599.29,321.05c-1.58,31.82-4.09,114.8,12.19,119.49,19.13,5.52,83.45-5.19,133.17,6.16" transform="translate(235.99 3.15)"/><path class="cls-18" d="M748.61,447.66c1.35.35,2.69.71,4,1.09,0,0,.35,1.25.9,4.07" transform="translate(235.99 3.15)"/><path class="cls-35" d="M755,461.41c2.84,19.59,7,64.51,4.92,152.3" transform="translate(235.99 3.15)"/><path class="cls-18" d="M759.77,618.08c0,1.37-.08,2.76-.12,4.16" transform="translate(235.99 3.15)"/><path class="cls-36" d="M386.43,164.7a77.3,77.3,0,0,0-77.3-77.31v35.68a41.63,41.63,0,1,1,0,83.25V313.1s36.48-58.32,50.23-78C389.92,191.52,386.43,164.7,386.43,164.7Z" transform="translate(235.99 3.15)"/><path class="cls-37" d="M309.13,123.07V87.39a77.31,77.31,0,0,0-77.31,77.31s-3.49,26.82,27.08,70.45c13.75,19.63,50.23,78,50.23,78V206.32a41.63,41.63,0,1,1,0-83.25Z" transform="translate(235.99 3.15)"/><path class="cls-15" d="M252.79,166.07a56.33,56.33,0,0,0,56.33,56.34V109.74A56.32,56.32,0,0,0,252.79,166.07Z" transform="translate(235.99 3.15)"/><path class="cls-4" d="M309.12,109.74V222.41a56.34,56.34,0,1,0,0-112.67Z" transform="translate(235.99 3.15)"/><path class="cls-16" d="M-93.58,454.18a3.37,3.37,0,0,1-3.37-3.37V428.69a3.36,3.36,0,0,1,3.37-3.36H-81.8v-5.67H-98.2a4.68,4.68,0,0,0-4.69,4.69v30.8a4.68,4.68,0,0,0,4.69,4.69h9.57l2.76,9.16,4.07,13.46V454.18Z" transform="translate(235.99 3.15)"/><path class="cls-38" d="M-65.4,419.66H-81.8v5.67H-70a3.36,3.36,0,0,1,3.37,3.36v22.12A3.37,3.37,0,0,1-70,454.18H-81.8v28.28L-77.73,469l2.76-9.16h9.57a4.69,4.69,0,0,0,4.69-4.69v-30.8A4.69,4.69,0,0,0-65.4,419.66Z" transform="translate(235.99 3.15)"/><path class="cls-9" d="M-70,454.18a3.37,3.37,0,0,0,3.37-3.37V428.69A3.36,3.36,0,0,0-70,425.33H-81.8v28.85Z" transform="translate(235.99 3.15)"/><path class="cls-10" d="M-96.95,428.69v22.12a3.37,3.37,0,0,0,3.37,3.37H-81.8V425.33H-93.58A3.36,3.36,0,0,0-96.95,428.69Z" transform="translate(235.99 3.15)"/><path class="cls-37" d="M434.6,559.3a14.76,14.76,0,0,1,14.76-14.76v-6.33A21.1,21.1,0,0,0,444,579.7l0,.11,5.37,21.24v-27A14.76,14.76,0,0,1,434.6,559.3Z" transform="translate(235.99 3.15)"/><path class="cls-36" d="M449.36,538.21v6.33a14.77,14.77,0,1,1,0,29.53v27l5.37-21.24,0-.11a21.1,21.1,0,0,0-5.4-41.49Z" transform="translate(235.99 3.15)"/><path class="cls-15" d="M434.6,559.3a14.76,14.76,0,0,0,14.76,14.77V544.54A14.76,14.76,0,0,0,434.6,559.3Z" transform="translate(235.99 3.15)"/><path class="cls-4" d="M464.13,559.3a14.76,14.76,0,0,0-14.77-14.76v29.53A14.77,14.77,0,0,0,464.13,559.3Z" transform="translate(235.99 3.15)"/></g></g></g></svg>